<?xml version="1.0" encoding="UTF-8" standalone="no"?>
<!-- Uploaded to: SVG Repo, www.svgrepo.com, Generator: SVG Repo Mixer Tools -->

<svg
   height="200"
   width="400"
   version="1.1"
   id="Layer_1"
   viewBox="0 0 512 512"
   xml:space="preserve"
   sodipodi:docname="pallasso.svg"
   xmlns:inkscape="http://www.inkscape.org/namespaces/inkscape"
   xmlns:sodipodi="http://sodipodi.sourceforge.net/DTD/sodipodi-0.dtd"
   xmlns="http://www.w3.org/2000/svg"
   xmlns:svg="http://www.w3.org/2000/svg"><defs
   id="defs2199" /><sodipodi:namedview
   id="namedview2197"
   pagecolor="#ffffff"
   bordercolor="#666666"
   borderopacity="1.0"
   inkscape:showpageshadow="2"
   inkscape:pageopacity="0.0"
   inkscape:pagecheckerboard="0"
   inkscape:deskcolor="#d1d1d1"
   showgrid="false" />
<path
   style="fill:#bc2a46"
   d="m 256,147.777 c -53.656,0 -97.308,43.652 -97.308,97.308 0,53.656 43.652,97.308 97.308,97.308 53.656,0 97.308,-43.652 97.308,-97.308 0,-53.656 -43.652,-97.308 -97.308,-97.308 z"
   id="path2188" />
<path
   style="fill:#39b7b6"
   d="M 149.584,54.218 H 115.983 V 20.616 C 115.983,9.23 106.753,0 95.367,0 83.981,0 74.751,9.23 74.751,20.616 V 54.218 H 41.149 c -11.385,0 -20.616,9.23 -20.616,20.616 0,11.386 9.23,20.616 20.616,20.616 h 33.602 v 33.601 c 0,11.385 9.23,20.616 20.616,20.616 11.385,0 20.616,-9.23 20.616,-20.616 V 95.45 h 33.601 c 11.385,0 20.616,-9.23 20.616,-20.616 0,-11.386 -9.229,-20.616 -20.616,-20.616 z"
   id="path2190" />
<path
   style="fill:#66cbc4"
   d="M 470.577,54.218 H 436.976 V 20.616 C 436.976,9.23 427.746,0 416.361,0 404.976,0 395.745,9.23 395.745,20.616 v 33.602 h -33.602 c -11.385,0 -20.616,9.23 -20.616,20.616 0,11.386 9.23,20.616 20.616,20.616 h 33.602 v 33.601 c 0,11.385 9.23,20.616 20.616,20.616 11.385,0 20.616,-9.23 20.616,-20.616 V 95.45 h 33.601 c 11.385,0 20.616,-9.23 20.616,-20.616 0,-11.386 -9.231,-20.616 -20.617,-20.616 z"
   id="path2192" />
<path
   style="fill:#0e4151"
   d="m 485.865,349.497 c -3.602,-10.408 -11.042,-18.791 -20.951,-23.602 -20.449,-9.93 -45.169,-1.373 -55.099,19.072 -24.956,51.375 -77.988,84.57 -135.104,84.57 h -37.423 c -57.115,0 -110.147,-33.196 -135.105,-84.571 -4.813,-9.907 -13.195,-17.345 -23.601,-20.947 -10.41,-3.604 -21.598,-2.937 -31.501,1.877 -9.907,4.812 -17.346,13.194 -20.948,23.601 -3.601,10.408 -2.936,21.597 1.877,31.501 19.098,39.32 48.778,72.36 85.828,95.551 37.05,23.192 79.739,35.451 123.448,35.451 h 37.423 c 43.711,0 86.398,-12.26 123.449,-35.451 37.049,-23.191 66.729,-56.232 85.828,-95.55 4.816,-9.907 5.481,-21.094 1.879,-31.502 z"
   id="path2194" />
<path
   style="fill:none;stroke:#000000;stroke-width:2.56px;stroke-linecap:butt;stroke-linejoin:miter;stroke-opacity:1"
   d="m 91.465088,163.37762 -42.186726,82.83936 -4.21865,10.93018 -0.767053,4.41045 -0.575257,5.94447 0.191744,4.60219 1.34231,4.21867 1.917568,2.30111 3.451648,2.30108 3.068134,1.53406 4.41042,1.53408 4.985702,0.19174 h 4.026906 l 4.602188,-0.57526 5.369216,-0.95879 3.835162,-2.10934 2.492851,-2.30108 2.876365,-2.68462 2.492851,-3.6434 1.342311,-5.17747 v -4.21867 l -0.191744,-5.56096 0.191744,-4.60219 v -5.17746 z"
   id="path2356" /><path
   style="fill:#33b3f0;fill-opacity:1;stroke-width:0.271186"
   d="m 56.406784,282.06907 c -3.740314,-1.32444 -7.475968,-3.49297 -9.10912,-5.28781 -0.429056,-0.47153 -1.094042,-1.80278 -1.495526,-2.994 -0.696346,-2.06607 -0.717671,-2.30543 -0.579482,-6.50849 0.210688,-6.41044 0.71552,-8.82035 3.185946,-15.21097 1.82231,-4.71404 4.661196,-10.46256 21.695692,-43.93221 10.779469,-21.17966 19.69577,-38.61626 19.814016,-38.748 0.118272,-0.13174 0.156928,2.00385 0.08627,4.74576 -0.288153,11.15481 -1.22158,75.04201 -1.220556,83.54002 0.0011,8.62679 -0.03277,9.25778 -0.612122,11.42743 -0.432666,1.62025 -0.963994,2.80438 -1.804518,4.02153 -1.538663,2.22815 -5.630388,6.0011 -7.912064,7.29567 -2.687437,1.52481 -6.813184,2.2008 -14.184064,2.32404 -5.674624,0.095 -5.702631,0.0924 -7.864397,-0.67297 z"
   id="path2784" /><path
   style="fill:#33b3f0;fill-opacity:1;stroke-width:0.0958789"
   d="m 59.489485,285.32603 -1.677901,-0.076 -2.302054,-0.80804 c -2.953472,-1.03672 -4.953037,-2.02512 -7.411815,-3.66369 l -1.794125,-1.19563 -1.094348,-1.31256 -1.094349,-1.31254 -0.735744,-2.3148 -0.735744,-2.3148 -0.105216,-2.42166 -0.105216,-2.42166 0.329446,-3.27508 c 0.205312,-2.04014 0.472551,-4.07048 0.709018,-5.38443 l 0.379571,-2.10933 2.153498,-5.56099 2.153497,-5.56097 14.626509,-28.71573 14.626509,-28.71572 1.449165,-0.0265 1.449139,-0.0265 -1.195648,2.3276 c -1.459405,2.84107 -8.284595,16.24608 -25.666765,50.41086 l -3.048806,5.99243 -2.036634,5.27334 -2.036634,5.27336 -0.36887,2.06139 c -0.214016,1.19534 -0.493747,3.31013 -0.666138,5.03362 -0.289203,2.89147 -0.294604,3.0335 -0.199168,5.22542 l 0.0983,2.25313 0.599732,1.86965 0.599756,1.86964 0.773888,0.94247 c 0.716903,0.87309 0.89833,1.02615 2.46418,2.07895 2.20078,1.47968 3.905049,2.32758 6.555289,3.26134 l 2.109338,0.74319 2.684595,0.10701 c 4.30551,0.17152 5.472768,0.14541 8.170854,-0.18407 2.225357,-0.27154 4.376372,-0.61248 6.574592,-1.0421 0.850048,-0.16614 1.103104,-0.27281 2.674586,-1.1276 l 1.735706,-0.94408 2.598758,-2.41052 2.598758,-2.41052 1.136666,-1.67562 1.136691,-1.67562 0.602343,-2.30157 0.602316,-2.30157 -0.0019,-8.3297 c -0.0011,-4.58134 0.04736,-11.28518 0.10752,-14.89741 0.06016,-3.61224 0.196096,-12.13348 0.301901,-18.93608 0.105728,-6.80261 0.277811,-17.61056 0.382259,-24.01766 0.104448,-6.40711 0.189952,-11.83266 0.190208,-12.05677 l 3.33e-4,-0.40749 h 1.28535 1.28535 l -0.04429,1.89361 c -0.0535,2.28612 -0.763596,46.93036 -0.916992,57.64718 -0.136192,9.50972 -0.13824,10.36422 -0.0384,15.19681 l 0.08115,3.93104 -0.74048,2.82841 -0.740505,2.82842 -1.377331,2.01346 -1.377306,2.01347 -2.742298,2.5408 c -2.945049,2.72865 -2.63511,2.50181 -5.70048,4.17231 l -1.294361,0.70536 -2.739405,0.48753 c -1.506688,0.26813 -3.750246,0.61575 -4.985702,0.7725 -2.121114,0.26911 -2.422631,0.28421 -5.410304,0.2709 -1.740212,-0.008 -3.919053,-0.0484 -4.841882,-0.0901 z"
   id="path2786" /><path
   style="fill:#33b3f0;fill-opacity:1;stroke-width:0.0479393"
   d="m 77.461222,188.08628 c 0.0279,-0.0735 12.820762,-25.22555 12.854656,-25.27338 0.0051,-0.007 0.551783,0.1217 1.214567,0.28686 l 1.205043,0.30028 -3.07e-4,0.28841 c -1.54e-4,0.15862 -0.08627,5.6061 -0.191488,12.10549 -0.105216,6.49939 -0.191232,11.93033 -0.191488,12.06875 l -2.31e-4,0.25168 h -1.2704 -1.2704 l 1.54e-4,-0.73108 c 1.28e-4,-0.65318 0.09728,-6.85531 0.240896,-15.39442 0.0279,-1.65773 0.0425,-3.02238 0.03226,-3.03256 -0.01024,-0.0102 -0.257382,0.45089 -0.549376,1.02458 -3.280051,6.44469 -9.227366,18.11248 -9.237606,18.12289 -0.0077,0.007 -0.656205,0.0271 -1.442125,0.0438 -1.394176,0.0297 -1.428096,0.0282 -1.394227,-0.0613 z"
   id="path2790" /></svg>
