<?xml version="1.0" encoding="UTF-8" standalone="no"?>
<!-- Uploaded to: SVG Repo, www.svgrepo.com, Generator: SVG Repo Mixer Tools -->

<svg
   xmlns:dc="http://purl.org/dc/elements/1.1/"
   xmlns:cc="http://creativecommons.org/ns#"
   xmlns:rdf="http://www.w3.org/1999/02/22-rdf-syntax-ns#"
   xmlns:svg="http://www.w3.org/2000/svg"
   xmlns="http://www.w3.org/2000/svg"
   xmlns:sodipodi="http://sodipodi.sourceforge.net/DTD/sodipodi-0.dtd"
   xmlns:inkscape="http://www.inkscape.org/namespaces/inkscape"
   height="200px"
   width="400px"
   version="1.1"
   id="Layer_1"
   viewBox="0 0 512 512"
   xml:space="preserve"
   sodipodi:docname="pallasso.svg"><metadata
   id="metadata3762"><rdf:RDF><cc:Work
       rdf:about=""><dc:format>image/svg+xml</dc:format><dc:type
         rdf:resource="http://purl.org/dc/dcmitype/StillImage" /></cc:Work></rdf:RDF></metadata><defs
   id="defs3760" /><sodipodi:namedview
   pagecolor="#ffffff"
   bordercolor="#666666"
   borderopacity="1"
   objecttolerance="10"
   gridtolerance="10"
   guidetolerance="10"
   inkscape:pageopacity="0"
   inkscape:pageshadow="2"
   inkscape:window-width="640"
   inkscape:window-height="480"
   id="namedview3758"
   showgrid="false" />
<path
   style="fill:#BC2A46; cursor:pointer"
   d="M256,147.777c-53.656,0-97.308,43.652-97.308,97.308s43.652,97.308,97.308,97.308  s97.308-43.652,97.308-97.308S309.656,147.777,256,147.777z"
   id="path3749" />
<path
   style="fill:#39B7B6;"
   d="M149.584,54.218h-33.601V20.616C115.983,9.23,106.753,0,95.367,0S74.751,9.23,74.751,20.616v33.602  H41.149c-11.385,0-20.616,9.23-20.616,20.616s9.23,20.616,20.616,20.616h33.602v33.601c0,11.385,9.23,20.616,20.616,20.616  c11.385,0,20.616-9.23,20.616-20.616V95.45h33.601c11.385,0,20.616-9.23,20.616-20.616S160.971,54.218,149.584,54.218z"
   id="path3751" />
<path
   style="fill:#66CBC4;"
   d="M470.577,54.218h-33.601V20.616C436.976,9.23,427.746,0,416.361,0  c-11.385,0-20.616,9.23-20.616,20.616v33.602h-33.602c-11.385,0-20.616,9.23-20.616,20.616s9.23,20.616,20.616,20.616h33.602v33.601  c0,11.385,9.23,20.616,20.616,20.616c11.385,0,20.616-9.23,20.616-20.616V95.45h33.601c11.385,0,20.616-9.23,20.616-20.616  S481.963,54.218,470.577,54.218z"
   id="path3753" />
<path
   style="fill:#0E4151;"
   d="M485.865,349.497c-3.602-10.408-11.042-18.791-20.951-23.602  c-20.449-9.93-45.169-1.373-55.099,19.072c-24.956,51.375-77.988,84.57-135.104,84.57h-37.423  c-57.115,0-110.147-33.196-135.105-84.571c-4.813-9.907-13.195-17.345-23.601-20.947c-10.41-3.604-21.598-2.937-31.501,1.877  c-9.907,4.812-17.346,13.194-20.948,23.601c-3.601,10.408-2.936,21.597,1.877,31.501c19.098,39.32,48.778,72.36,85.828,95.551  C150.888,499.741,193.577,512,237.286,512h37.423c43.711,0,86.398-12.26,123.449-35.451c37.049-23.191,66.729-56.232,85.828-95.55  C488.802,371.092,489.467,359.905,485.865,349.497z"
   id="path3755" />
<path
   style="fill:none;stroke:#000000;stroke-width:2.55999994px;stroke-linecap:butt;stroke-linejoin:miter;stroke-opacity:1"
   d="m 92.538266,153.32982 c -1.125786,0.90061 -2.251546,1.80123 -3.377306,2.70184 -0.45033,0 -0.948173,-0.20139 -1.350938,0 -0.201472,0.10069 0.100608,0.47408 0,0.67546 -0.142336,0.2848 -0.390656,0.53306 -0.675456,0.67546 -0.201472,0.10069 -0.474086,-0.10068 -0.675456,0 -0.2848,0.14239 -0.390681,0.53307 -0.675481,0.67547 -0.201472,0.10068 -0.51625,-0.15921 -0.675456,0 -1.397555,1.39755 2.135654,-0.0546 -0.675456,1.35092 -0.201472,0.10069 -0.474087,-0.10068 -0.675456,0 -0.2848,0.14239 -0.390656,0.53306 -0.675456,0.67546 -0.402791,0.2014 -1.032525,-0.31841 -1.350938,0 -0.159232,0.15921 0.159232,0.51626 0,0.67547 -0.159232,0.1592 -0.516249,-0.15921 -0.675456,0 -0.159232,0.1592 0.100608,0.47407 0,0.67546 -0.142336,0.2848 -0.450304,0.4503 -0.675456,0.67546 -0.225024,0.22515 -0.390681,0.53306 -0.675481,0.67546 -0.201472,0.10068 -0.51625,-0.15921 -0.675456,0 -0.159232,0.1592 0.159232,0.51625 0,0.67546 -0.159232,0.15921 -0.51625,-0.1592 -0.675456,0 -0.159232,0.15921 0.100608,0.47408 0,0.67546 -0.142336,0.2848 -0.533069,0.39066 -0.675456,0.67546 -0.100608,0.2014 0.159232,0.51626 0,0.67547 -0.159232,0.1592 -0.51625,-0.15921 -0.675456,0 -0.35602,0.356 -0.319463,0.99492 -0.675482,1.35092 -0.159232,0.15921 -0.51625,-0.15921 -0.675456,0 -0.159232,0.15921 0.100608,0.47408 0,0.67546 -0.142336,0.2848 -0.533069,0.39066 -0.675456,0.67546 -0.100608,0.2014 0.100608,0.47408 0,0.67547 -1.405568,2.8111 0.04659,-0.7221 -1.350938,0.67546 -0.355993,0.356 -0.396185,0.93202 -0.675456,1.35092 -0.353254,0.52988 -1.149542,0.74677 -1.350912,1.35092 0,0.45031 0,0.90062 0,1.35093 -0.225024,0 -0.574771,-0.20137 -0.675456,0 -0.201472,0.40276 0,0.90061 0,1.35092 0,0.22515 0.124928,0.48812 0,0.67546 -0.353254,0.52988 -0.997683,0.82105 -1.350937,1.35092 -0.124928,0.18735 0.07117,0.46187 0,0.67547 -0.318413,0.95524 -1.106714,1.72499 -1.350912,2.70185 -0.109312,0.43686 0.142336,0.92372 0,1.35092 -0.100608,0.30207 -0.533069,0.39066 -0.675482,0.67546 -0.100608,0.20139 0.100608,0.47408 0,0.67546 -0.142336,0.2848 -0.533043,0.39066 -0.675456,0.67546 -0.201472,0.40277 0.142336,0.92373 0,1.35093 -0.159232,0.47762 -0.516249,0.8733 -0.675456,1.35092 -0.07117,0.21361 0.100608,0.47408 0,0.67546 -0.2848,0.5696 -1.066112,0.78133 -1.350912,1.35093 -0.133888,0.26781 0.137984,1.88829 0,2.02638 -0.159232,0.15921 -0.574771,-0.2014 -0.675481,0 -0.201472,0.40277 0.142336,0.92372 0,1.35092 -0.100608,0.30208 -0.574772,0.37339 -0.675456,0.67547 -0.142336,0.4272 0.201472,0.94815 0,1.35092 -0.100608,0.2014 -0.51625,-0.15921 -0.675456,0 -0.159232,0.15921 0.100608,0.47408 0,0.67546 -0.142336,0.2848 -0.450304,0.45031 -0.675456,0.67546 0,0.45031 0.142336,0.92373 0,1.35093 -0.100608,0.30207 -0.533069,0.39066 -0.675482,0.67546 -0.100608,0.20139 0.100608,0.47407 0,0.67546 -0.142336,0.2848 -0.533043,0.39066 -0.675456,0.67546 -0.270182,0.54037 0.270182,1.48602 0,2.02639 -1.405542,2.81111 0.04659,-0.72209 -1.350912,0.67546 -0.209152,0.20915 0.209152,3.16815 0,3.37731 -0.159232,0.1592 -0.51625,-0.15921 -0.675456,0 -0.318438,0.31841 0.201472,0.94815 0,1.35092 -0.142336,0.2848 -0.533069,0.39066 -0.675482,0.67546 -0.201472,0.40277 0.201472,0.94816 0,1.35093 -0.142336,0.2848 -0.574771,0.37338 -0.675456,0.67546 -0.675456,2.02638 0.337741,0.67546 0,2.02638 -0.1728,0.69074 -0.502784,1.33565 -0.675456,2.02639 -0.05453,0.21842 0.07117,0.46186 0,0.67546 -0.318412,0.95525 -1.032499,1.7466 -1.350937,2.70185 -0.142336,0.4272 0.201472,0.94815 0,1.35092 -0.142336,0.2848 -0.533043,0.39066 -0.675456,0.67546 -0.197888,0.39574 0.124416,2.87956 0,3.37731 -0.122112,0.48843 -0.51625,0.8733 -0.675456,1.35092 -0.07117,0.21361 0.100608,0.47408 0,0.67547 -0.142336,0.2848 -0.533069,0.39066 -0.675456,0.67546 -0.201472,0.40277 0.142336,0.92372 0,1.35092 -0.318413,0.95525 -1.032525,1.7466 -1.350938,2.70185 -0.181248,0.54368 0.215808,2.27021 0,2.70185 -0.142336,0.2848 -0.450304,0.4503 -0.675456,0.67546 -0.772838,0.77283 -0.942003,0.79959 -1.350912,2.02638 -0.23936,0.71775 0.23936,1.98409 0,2.70185 -1.630899,4.89265 0.194816,-1.06494 -1.350937,2.02639 -0.215808,0.43163 0.181248,2.15816 0,2.70184 -0.318413,0.95525 -1.0325,1.7466 -1.350912,2.70185 -0.18944,0.56869 0.20096,2.97516 0,3.37731 -0.142336,0.2848 -0.533069,0.39066 -0.675482,0.67546 -0.178944,0.35816 0.153088,2.91779 0,3.37731 -0.100608,0.30207 -0.533043,0.39066 -0.675456,0.67546 -0.09677,0.19333 0,3.01647 0,3.37731 0,2.92701 0,5.85401 0,8.78101 0,3.15215 0,6.30431 0,9.45646 0,0.7585 -0.161024,4.24532 0,4.72822 0.159232,0.47764 0.51625,0.87332 0.675456,1.35093 0.337741,1.0132 -0.675456,0.67546 0,2.0264 0.100608,0.20147 0.516275,-0.15923 0.675482,0 0.159232,0.15923 -0.100608,0.47406 0,0.67545 0.142336,0.2848 0.533043,0.39066 0.675456,0.67546 0.201472,0.40277 -0.201472,0.94815 0,1.35091 2.24023,2.24023 -0.318413,-0.63682 0.675456,1.35094 0.142336,0.2848 0.533068,0.39066 0.675456,0.67546 0.178176,0.35655 -0.196096,1.73225 0,2.02639 0.353254,0.52987 0.900633,0.90061 1.350937,1.35091 0.225024,0.22503 0.533069,0.39066 0.675456,0.67546 0.100608,0.20147 0,0.45033 0,0.67548 0,1.00536 -0.100608,0.86216 0.675456,2.02637 0.662631,0.99392 2.039245,1.70793 2.70185,2.70185 0.27927,0.41892 0.319462,0.99492 0.675456,1.35093 0.159232,0.15924 0.516275,-0.15923 0.675481,0 0.574029,0.57403 0.776884,1.45234 1.350912,2.02637 0.355994,0.35602 0.873293,0.51628 1.350938,0.67548 0.213504,0.0712 0.51625,-0.15923 0.675456,0 0.355994,0.356 0.319462,0.99492 0.675456,1.35092 0.159232,0.15923 0.474086,-0.10061 0.675456,0 0.810547,0.40527 1.215846,1.62112 2.026394,2.02639 0.201472,0.10061 0.516249,-0.15923 0.675456,0 0.159232,0.15923 -0.201472,0.57477 0,0.67546 0.402764,0.20147 0.900608,0 1.350937,0 0.22528,0 0.51625,-0.15924 0.675456,0 0.355994,0.35599 0.319463,0.99491 0.675456,1.35091 0.159232,0.15923 0.46185,-0.0712 0.675456,0 0.477619,0.15923 0.883482,0.4885 1.350938,0.67548 0.661069,0.26442 1.389542,0.35704 2.026368,0.67546 0.2848,0.14233 0.390681,0.53306 0.675481,0.67545 0.402765,0.20147 0.948148,-0.20147 1.350912,0 0.2848,0.14234 0.390656,0.53307 0.675456,0.67546 0.402765,0.20147 0.923725,-0.14234 1.350938,0 0.477619,0.15923 0.873293,0.51625 1.350912,0.67545 0.566118,0.18868 2.254208,-0.22374 2.70185,0 0.2848,0.14234 0.390656,0.53307 0.675456,0.67548 0.205568,0.10266 1.722188,0 2.026393,0 1.350912,0 2.70185,0 4.052762,0 3.152153,0 6.304307,0 9.456461,0 0.478771,0 3.878144,0.0873 4.052787,0 0.2848,-0.14233 0.410521,-0.49884 0.675456,-0.67548 0.418893,-0.27924 0.900603,-0.4503 1.350913,-0.67545 0.45033,-0.22528 0.87332,-0.51625 1.35094,-0.67546 0.2135,-0.0712 0.46185,0.0712 0.67545,0 0.47762,-0.15923 0.86249,-0.55334 1.35094,-0.67545 0.8737,-0.21837 1.82812,0.21836 2.70182,0 1.95902,-0.48976 0.79048,-0.52698 2.0264,-1.35094 0.83781,-0.55854 1.86404,-0.79237 2.70185,-1.35091 0.26493,-0.17664 0.41052,-0.49885 0.67545,-0.67546 0.41892,-0.27927 0.93202,-0.39621 1.35094,-0.67548 0.52987,-0.35323 0.78131,-1.06611 1.35091,-1.35091 0.20147,-0.10061 0.51625,0.15923 0.67546,0 0.15923,-0.15924 -0.15923,-0.51625 0,-0.67546 0.15923,-0.15923 0.47409,0.10061 0.67548,0 0.2848,-0.14234 0.4503,-0.4503 0.67546,-0.67546 0.22502,-0.22528 0.53307,-0.39068 0.67545,-0.67548 0.10061,-0.20147 -0.12493,-0.48811 0,-0.67545 2.61092,-3.91639 0.32492,-0.50018 2.0264,-1.35092 0.27947,-0.13977 1.83552,-1.74008 2.02636,-2.02639 0.27927,-0.41889 0.39622,-0.93202 0.67549,-1.35091 0.52986,-0.79483 1.49649,-1.23159 2.02636,-2.02639 0.12493,-0.1874 -0.12492,-0.48812 0,-0.67546 0.35326,-0.5299 0.96884,-0.84147 1.35094,-1.35094 0.22528,-0.4503 0.45031,-0.90061 0.67546,-1.35091 0,-0.22528 -0.10061,-0.47409 0,-0.67546 0.14233,-0.2848 0.53307,-0.39068 0.67545,-0.67548 0.19917,-0.39854 -0.15488,-1.56178 0,-2.02637 0.47284,-1.41847 1.55356,-2.63431 2.0264,-4.05278 0.0712,-0.21351 0,-0.45031 0,-0.67546 0.22528,-0.4503 0.51625,-0.87329 0.67545,-1.35091 0.16103,-0.48289 0,-3.96974 0,-4.72824 0,-0.45031 0,-0.90061 0,-1.35092 0,-0.22528 -0.10061,-0.47408 0,-0.67548 1.54565,-3.0913 -0.27996,2.86628 1.35094,-2.02637 0.12314,-0.36922 0,-4.20024 0,-4.72824 0,-3.3773 0,-6.75461 0,-10.13192 0,-1.12577 0,-2.25154 0,-3.37731 0,-0.22515 -0.0712,-0.46186 0,-0.67546 0.15923,-0.47763 0.51625,-0.8733 0.67546,-1.35093 0.13286,-0.3986 0,-2.99991 0,-3.37731 0,-2.70184 0,-5.40369 0,-8.10553 0,-6.07916 0,-12.15832 0,-18.23747 0,-1.57608 0,-3.15216 0,-4.72824 0,-0.67546 0,-1.35092 0,-2.02638 0,-0.45031 0.14233,-0.92372 0,-1.35092 -0.10061,-0.30208 -0.53307,-0.39066 -0.67546,-0.67546 -0.10061,-0.2014 0.0545,-0.45704 0,-0.67547 -0.1728,-0.69074 -0.50278,-1.33564 -0.67548,-2.02638 -0.0545,-0.21842 0.10061,-0.47408 0,-0.67546 -0.14234,-0.2848 -0.57477,-0.37339 -0.67546,-0.67547 -0.14233,-0.42719 0.10931,-0.91406 0,-1.35092 -0.24422,-0.97685 -1.0325,-1.7466 -1.35091,-2.70185 -0.0712,-0.2136 0.0545,-0.45703 0,-0.67546 -0.1728,-0.69074 -0.50278,-1.33564 -0.67548,-2.02638 -0.0545,-0.21842 0.15923,-0.51626 0,-0.67546 -0.35599,-0.35601 -0.99492,-0.31947 -1.35091,-0.67547 -0.15923,-0.1592 0.0712,-0.46186 0,-0.67546 -0.15923,-0.47762 -0.51625,-0.8733 -0.67546,-1.35092 -0.0712,-0.21361 0.10061,-0.47408 0,-0.67546 -0.14233,-0.2848 -0.53307,-0.39067 -0.67545,-0.67547 -0.31844,-0.63683 -0.35707,-1.38955 -0.67549,-2.02638 -0.14233,-0.2848 -0.53304,-0.39066 -0.67545,-0.67546 -0.10061,-0.2014 0,-0.45031 0,-0.67546 -0.22528,-0.67547 -0.30915,-1.41586 -0.67546,-2.02639 -0.32765,-0.54608 -0.99768,-0.82105 -1.35094,-1.35092 -0.12492,-0.18734 0.0712,-0.46186 0,-0.67546 -0.18176,-0.54507 -1.69738,-3.61411 -2.02636,-4.05278 -0.38211,-0.50946 -1.11442,-0.75963 -1.35094,-1.35092 -0.25088,-0.62715 0.25088,-1.39923 0,-2.02638 -0.33772,-0.84433 -1.51977,-1.26649 -2.02637,-2.02639 -0.55854,-0.83781 -0.7924,-1.86404 -1.35094,-2.70185 -0.35325,-0.52987 -1.06611,-0.78132 -1.35091,-1.35092 -0.20147,-0.40277 0.24986,-0.97624 0,-1.35092 -0.35325,-0.52988 -0.99768,-0.82105 -1.35094,-1.35093 -0.12492,-0.18734 0.15924,-0.51625 0,-0.67546 -0.15923,-0.1592 -0.51625,0.15921 -0.67545,0 -0.15923,-0.1592 0.10061,-0.47408 0,-0.67546 -0.14234,-0.2848 -0.45031,-0.45031 -0.67546,-0.67546 -0.4503,-0.45031 -0.99768,-0.82105 -1.35094,-1.35092 -0.12492,-0.18734 0.10061,-0.47408 0,-0.67547 -0.14233,-0.2848 -0.53304,-0.39066 -0.67545,-0.67546 -0.10061,-0.20139 0.15923,-0.51625 0,-0.67546 -0.15923,-0.15921 -0.51625,0.15921 -0.67546,0 -0.15923,-0.15921 0.10061,-0.47408 0,-0.67546 -0.27784,-0.55565 -2.36882,-2.20229 -2.70185,-2.70185 -0.69878,-1.04816 1.14742,-0.43948 -0.67545,-1.35092 -0.20148,-0.10069 -0.47409,0.10068 -0.67546,0 -0.12928,-0.0646 -2.63721,-2.57255 -2.70185,-2.70185 -0.10061,-0.20139 0.10061,-0.47408 0,-0.67546 -0.2848,-0.5696 -0.99768,-0.82105 -1.350937,-1.35093 -0.279271,-0.4189 -0.319463,-0.99492 -0.675456,-1.35092 -0.159232,-0.1592 -0.51625,0.15921 -0.675456,0 -0.159232,-0.1592 0.159232,-0.51625 0,-0.67546 -0.159232,-0.15921 -0.51625,0.15921 -0.675456,0 -0.159232,-0.15921 0.159232,-0.51625 0,-0.67546 -0.159232,-0.15921 -0.474087,0.10068 -0.675482,0 -0.360755,-0.18038 -1.670758,-1.67078 -2.026368,-2.02639 z"
   id="path3772"
   inkscape:connector-curvature="0" /></svg>